<mxfile host="app.diagrams.net" modified="2024-03-12T11:25:41.558Z" agent="Mozilla/5.0 (Windows NT 10.0; Win64; x64) AppleWebKit/537.36 (KHTML, like Gecko) Chrome/122.0.0.0 Safari/537.36" etag="u-pGQNsPHwi0pKbpd-B2" version="24.0.5" type="device" pages="3">
  <diagram name="Авторизация" id="cHrkAVR0oSUPIeOLuryX">
    <mxGraphModel dx="1050" dy="541" grid="1" gridSize="10" guides="1" tooltips="1" connect="1" arrows="1" fold="1" page="1" pageScale="1" pageWidth="827" pageHeight="1169" math="0" shadow="0">
      <root>
        <mxCell id="0" />
        <mxCell id="1" parent="0" />
        <mxCell id="hWAcScItprwZMfHqgFWp-5" style="edgeStyle=orthogonalEdgeStyle;rounded=0;orthogonalLoop=1;jettySize=auto;html=1;endArrow=none;endFill=0;" edge="1" parent="1" source="hWAcScItprwZMfHqgFWp-1" target="hWAcScItprwZMfHqgFWp-4">
          <mxGeometry relative="1" as="geometry" />
        </mxCell>
        <mxCell id="hWAcScItprwZMfHqgFWp-6" style="edgeStyle=orthogonalEdgeStyle;rounded=0;orthogonalLoop=1;jettySize=auto;html=1;" edge="1" parent="1">
          <mxGeometry relative="1" as="geometry">
            <mxPoint x="280" y="259" as="targetPoint" />
            <mxPoint x="120" y="259" as="sourcePoint" />
          </mxGeometry>
        </mxCell>
        <mxCell id="hWAcScItprwZMfHqgFWp-1" value="Неавторизованный&amp;nbsp;&lt;div&gt;пользователь&lt;/div&gt;" style="shape=umlActor;verticalLabelPosition=bottom;verticalAlign=top;html=1;outlineConnect=0;" vertex="1" parent="1">
          <mxGeometry x="90" y="310" width="30" height="60" as="geometry" />
        </mxCell>
        <mxCell id="hWAcScItprwZMfHqgFWp-2" value="Клиент" style="rounded=0;whiteSpace=wrap;html=1;" vertex="1" parent="1">
          <mxGeometry x="280" y="310" width="120" height="60" as="geometry" />
        </mxCell>
        <mxCell id="hWAcScItprwZMfHqgFWp-3" value="Сервер" style="rounded=0;whiteSpace=wrap;html=1;" vertex="1" parent="1">
          <mxGeometry x="560" y="310" width="120" height="60" as="geometry" />
        </mxCell>
        <mxCell id="hWAcScItprwZMfHqgFWp-4" value="База данных" style="rounded=0;whiteSpace=wrap;html=1;" vertex="1" parent="1">
          <mxGeometry x="840" y="310" width="120" height="60" as="geometry" />
        </mxCell>
        <mxCell id="hWAcScItprwZMfHqgFWp-7" style="edgeStyle=orthogonalEdgeStyle;rounded=0;orthogonalLoop=1;jettySize=auto;html=1;" edge="1" parent="1">
          <mxGeometry relative="1" as="geometry">
            <mxPoint x="560" y="260" as="targetPoint" />
            <mxPoint x="400" y="260" as="sourcePoint" />
          </mxGeometry>
        </mxCell>
        <mxCell id="hWAcScItprwZMfHqgFWp-8" style="edgeStyle=orthogonalEdgeStyle;rounded=0;orthogonalLoop=1;jettySize=auto;html=1;" edge="1" parent="1">
          <mxGeometry relative="1" as="geometry">
            <mxPoint x="840" y="260" as="targetPoint" />
            <mxPoint x="680" y="260" as="sourcePoint" />
          </mxGeometry>
        </mxCell>
        <mxCell id="hWAcScItprwZMfHqgFWp-9" style="edgeStyle=orthogonalEdgeStyle;rounded=0;orthogonalLoop=1;jettySize=auto;html=1;endArrow=none;endFill=0;startArrow=classic;startFill=1;" edge="1" parent="1">
          <mxGeometry relative="1" as="geometry">
            <mxPoint x="280" y="420" as="targetPoint" />
            <mxPoint x="120" y="420" as="sourcePoint" />
          </mxGeometry>
        </mxCell>
        <mxCell id="hWAcScItprwZMfHqgFWp-10" style="edgeStyle=orthogonalEdgeStyle;rounded=0;orthogonalLoop=1;jettySize=auto;html=1;endArrow=none;endFill=0;startArrow=classic;startFill=1;" edge="1" parent="1">
          <mxGeometry relative="1" as="geometry">
            <mxPoint x="560" y="420" as="targetPoint" />
            <mxPoint x="400" y="420" as="sourcePoint" />
          </mxGeometry>
        </mxCell>
        <mxCell id="hWAcScItprwZMfHqgFWp-11" style="edgeStyle=orthogonalEdgeStyle;rounded=0;orthogonalLoop=1;jettySize=auto;html=1;endArrow=none;endFill=0;startArrow=classic;startFill=1;" edge="1" parent="1">
          <mxGeometry relative="1" as="geometry">
            <mxPoint x="840" y="420" as="targetPoint" />
            <mxPoint x="680" y="420" as="sourcePoint" />
          </mxGeometry>
        </mxCell>
        <mxCell id="hWAcScItprwZMfHqgFWp-12" value="1. Нажать на кнопку &quot;Войти&quot;" style="text;html=1;align=center;verticalAlign=middle;whiteSpace=wrap;rounded=0;" vertex="1" parent="1">
          <mxGeometry x="110" y="150" width="190" height="30" as="geometry" />
        </mxCell>
        <mxCell id="hWAcScItprwZMfHqgFWp-14" value="5. Ввод данных о пользователе" style="text;html=1;align=center;verticalAlign=middle;whiteSpace=wrap;rounded=0;" vertex="1" parent="1">
          <mxGeometry x="112.5" y="210" width="185" height="30" as="geometry" />
        </mxCell>
        <mxCell id="hWAcScItprwZMfHqgFWp-15" value="6. Передача данных" style="text;html=1;align=center;verticalAlign=middle;whiteSpace=wrap;rounded=0;" vertex="1" parent="1">
          <mxGeometry x="380" y="200" width="185" height="30" as="geometry" />
        </mxCell>
        <mxCell id="hWAcScItprwZMfHqgFWp-16" value="2. Запрос на открытие страницы авторизации" style="text;html=1;align=center;verticalAlign=middle;whiteSpace=wrap;rounded=0;" vertex="1" parent="1">
          <mxGeometry x="380" y="150" width="185" height="30" as="geometry" />
        </mxCell>
        <mxCell id="hWAcScItprwZMfHqgFWp-17" value="7. Сохранение данных" style="text;html=1;align=center;verticalAlign=middle;whiteSpace=wrap;rounded=0;" vertex="1" parent="1">
          <mxGeometry x="670" y="200" width="185" height="30" as="geometry" />
        </mxCell>
        <mxCell id="hWAcScItprwZMfHqgFWp-18" value="8. Успешное сохранение данных" style="text;html=1;align=center;verticalAlign=middle;whiteSpace=wrap;rounded=0;" vertex="1" parent="1">
          <mxGeometry x="670" y="450" width="185" height="30" as="geometry" />
        </mxCell>
        <mxCell id="hWAcScItprwZMfHqgFWp-19" value="9. Вывод на главную страницу" style="text;html=1;align=center;verticalAlign=middle;whiteSpace=wrap;rounded=0;" vertex="1" parent="1">
          <mxGeometry x="390" y="450" width="185" height="30" as="geometry" />
        </mxCell>
        <mxCell id="hWAcScItprwZMfHqgFWp-20" value="3. Открыть страницу с авторизацией" style="text;html=1;align=center;verticalAlign=middle;whiteSpace=wrap;rounded=0;" vertex="1" parent="1">
          <mxGeometry x="372.5" y="500" width="200" height="30" as="geometry" />
        </mxCell>
        <mxCell id="hWAcScItprwZMfHqgFWp-22" value="10. Отображение главной страницы" style="text;html=1;align=center;verticalAlign=middle;whiteSpace=wrap;rounded=0;" vertex="1" parent="1">
          <mxGeometry x="120" y="450" width="185" height="30" as="geometry" />
        </mxCell>
        <mxCell id="hWAcScItprwZMfHqgFWp-23" value="4. Отображение страницы с авторизацией" style="text;html=1;align=center;verticalAlign=middle;whiteSpace=wrap;rounded=0;" vertex="1" parent="1">
          <mxGeometry x="120" y="510" width="185" height="30" as="geometry" />
        </mxCell>
      </root>
    </mxGraphModel>
  </diagram>
  <diagram id="p9IKz8q-ZqOFUHznbBPs" name="Регистрация">
    <mxGraphModel dx="1050" dy="541" grid="1" gridSize="10" guides="1" tooltips="1" connect="1" arrows="1" fold="1" page="1" pageScale="1" pageWidth="827" pageHeight="1169" math="0" shadow="0">
      <root>
        <mxCell id="0" />
        <mxCell id="1" parent="0" />
        <mxCell id="t5YEzW8ncuUaLtk5umpn-1" style="edgeStyle=orthogonalEdgeStyle;rounded=0;orthogonalLoop=1;jettySize=auto;html=1;endArrow=none;endFill=0;" edge="1" parent="1" source="t5YEzW8ncuUaLtk5umpn-3" target="t5YEzW8ncuUaLtk5umpn-6">
          <mxGeometry relative="1" as="geometry" />
        </mxCell>
        <mxCell id="t5YEzW8ncuUaLtk5umpn-2" style="edgeStyle=orthogonalEdgeStyle;rounded=0;orthogonalLoop=1;jettySize=auto;html=1;" edge="1" parent="1">
          <mxGeometry relative="1" as="geometry">
            <mxPoint x="280" y="259" as="targetPoint" />
            <mxPoint x="120" y="259" as="sourcePoint" />
          </mxGeometry>
        </mxCell>
        <mxCell id="t5YEzW8ncuUaLtk5umpn-3" value="Пользователь" style="shape=umlActor;verticalLabelPosition=bottom;verticalAlign=top;html=1;outlineConnect=0;" vertex="1" parent="1">
          <mxGeometry x="90" y="310" width="30" height="60" as="geometry" />
        </mxCell>
        <mxCell id="t5YEzW8ncuUaLtk5umpn-4" value="Клиент" style="rounded=0;whiteSpace=wrap;html=1;" vertex="1" parent="1">
          <mxGeometry x="280" y="310" width="120" height="60" as="geometry" />
        </mxCell>
        <mxCell id="t5YEzW8ncuUaLtk5umpn-5" value="Сервер" style="rounded=0;whiteSpace=wrap;html=1;" vertex="1" parent="1">
          <mxGeometry x="560" y="310" width="120" height="60" as="geometry" />
        </mxCell>
        <mxCell id="t5YEzW8ncuUaLtk5umpn-6" value="База данных" style="rounded=0;whiteSpace=wrap;html=1;" vertex="1" parent="1">
          <mxGeometry x="840" y="310" width="120" height="60" as="geometry" />
        </mxCell>
        <mxCell id="t5YEzW8ncuUaLtk5umpn-7" style="edgeStyle=orthogonalEdgeStyle;rounded=0;orthogonalLoop=1;jettySize=auto;html=1;" edge="1" parent="1">
          <mxGeometry relative="1" as="geometry">
            <mxPoint x="560" y="260" as="targetPoint" />
            <mxPoint x="400" y="260" as="sourcePoint" />
          </mxGeometry>
        </mxCell>
        <mxCell id="t5YEzW8ncuUaLtk5umpn-8" style="edgeStyle=orthogonalEdgeStyle;rounded=0;orthogonalLoop=1;jettySize=auto;html=1;" edge="1" parent="1">
          <mxGeometry relative="1" as="geometry">
            <mxPoint x="840" y="260" as="targetPoint" />
            <mxPoint x="680" y="260" as="sourcePoint" />
          </mxGeometry>
        </mxCell>
        <mxCell id="t5YEzW8ncuUaLtk5umpn-9" style="edgeStyle=orthogonalEdgeStyle;rounded=0;orthogonalLoop=1;jettySize=auto;html=1;endArrow=none;endFill=0;startArrow=classic;startFill=1;" edge="1" parent="1">
          <mxGeometry relative="1" as="geometry">
            <mxPoint x="280" y="420" as="targetPoint" />
            <mxPoint x="120" y="420" as="sourcePoint" />
          </mxGeometry>
        </mxCell>
        <mxCell id="t5YEzW8ncuUaLtk5umpn-10" style="edgeStyle=orthogonalEdgeStyle;rounded=0;orthogonalLoop=1;jettySize=auto;html=1;endArrow=none;endFill=0;startArrow=classic;startFill=1;" edge="1" parent="1">
          <mxGeometry relative="1" as="geometry">
            <mxPoint x="560" y="420" as="targetPoint" />
            <mxPoint x="400" y="420" as="sourcePoint" />
          </mxGeometry>
        </mxCell>
        <mxCell id="t5YEzW8ncuUaLtk5umpn-11" style="edgeStyle=orthogonalEdgeStyle;rounded=0;orthogonalLoop=1;jettySize=auto;html=1;endArrow=none;endFill=0;startArrow=classic;startFill=1;" edge="1" parent="1">
          <mxGeometry relative="1" as="geometry">
            <mxPoint x="840" y="420" as="targetPoint" />
            <mxPoint x="680" y="420" as="sourcePoint" />
          </mxGeometry>
        </mxCell>
        <mxCell id="t5YEzW8ncuUaLtk5umpn-12" value="1. Нажать на кнопку &quot;Войти&quot;" style="text;html=1;align=center;verticalAlign=middle;whiteSpace=wrap;rounded=0;" vertex="1" parent="1">
          <mxGeometry x="97.5" y="110" width="190" height="30" as="geometry" />
        </mxCell>
        <mxCell id="t5YEzW8ncuUaLtk5umpn-13" value="5. Выбрать форму с регистрацией" style="text;html=1;align=center;verticalAlign=middle;whiteSpace=wrap;rounded=0;" vertex="1" parent="1">
          <mxGeometry x="100" y="170" width="185" height="30" as="geometry" />
        </mxCell>
        <mxCell id="t5YEzW8ncuUaLtk5umpn-14" value="6. Запрос на открытие формы регистрации" style="text;html=1;align=center;verticalAlign=middle;whiteSpace=wrap;rounded=0;" vertex="1" parent="1">
          <mxGeometry x="375" y="170" width="185" height="30" as="geometry" />
        </mxCell>
        <mxCell id="t5YEzW8ncuUaLtk5umpn-15" value="2. Запрос на открытие страницы авторизации" style="text;html=1;align=center;verticalAlign=middle;whiteSpace=wrap;rounded=0;" vertex="1" parent="1">
          <mxGeometry x="380" y="110" width="185" height="30" as="geometry" />
        </mxCell>
        <mxCell id="t5YEzW8ncuUaLtk5umpn-16" value="11. Сохранение данных" style="text;html=1;align=center;verticalAlign=middle;whiteSpace=wrap;rounded=0;" vertex="1" parent="1">
          <mxGeometry x="670" y="200" width="185" height="30" as="geometry" />
        </mxCell>
        <mxCell id="t5YEzW8ncuUaLtk5umpn-17" value="12. Успешное сохранение данных" style="text;html=1;align=center;verticalAlign=middle;whiteSpace=wrap;rounded=0;" vertex="1" parent="1">
          <mxGeometry x="670" y="450" width="185" height="30" as="geometry" />
        </mxCell>
        <mxCell id="t5YEzW8ncuUaLtk5umpn-18" value="13. Вывод на главную страницу" style="text;html=1;align=center;verticalAlign=middle;whiteSpace=wrap;rounded=0;" vertex="1" parent="1">
          <mxGeometry x="390" y="450" width="185" height="30" as="geometry" />
        </mxCell>
        <mxCell id="t5YEzW8ncuUaLtk5umpn-19" value="7. Открыть страницу с регистрацией" style="text;html=1;align=center;verticalAlign=middle;whiteSpace=wrap;rounded=0;" vertex="1" parent="1">
          <mxGeometry x="372.5" y="500" width="200" height="30" as="geometry" />
        </mxCell>
        <mxCell id="t5YEzW8ncuUaLtk5umpn-20" value="14. Отображение главной страницы" style="text;html=1;align=center;verticalAlign=middle;whiteSpace=wrap;rounded=0;" vertex="1" parent="1">
          <mxGeometry x="120" y="450" width="185" height="30" as="geometry" />
        </mxCell>
        <mxCell id="t5YEzW8ncuUaLtk5umpn-21" value="8. Отображение страницы с регистрацией" style="text;html=1;align=center;verticalAlign=middle;whiteSpace=wrap;rounded=0;" vertex="1" parent="1">
          <mxGeometry x="120" y="500" width="185" height="30" as="geometry" />
        </mxCell>
        <mxCell id="t5YEzW8ncuUaLtk5umpn-23" value="9. Ввод данных о пользователе" style="text;html=1;align=center;verticalAlign=middle;whiteSpace=wrap;rounded=0;" vertex="1" parent="1">
          <mxGeometry x="110" y="220" width="185" height="30" as="geometry" />
        </mxCell>
        <mxCell id="t5YEzW8ncuUaLtk5umpn-24" value="10. Передача данных" style="text;html=1;align=center;verticalAlign=middle;whiteSpace=wrap;rounded=0;" vertex="1" parent="1">
          <mxGeometry x="380" y="220" width="185" height="30" as="geometry" />
        </mxCell>
        <mxCell id="t5YEzW8ncuUaLtk5umpn-26" value="3. Открыть страницу с авторизацией" style="text;html=1;align=center;verticalAlign=middle;whiteSpace=wrap;rounded=0;" vertex="1" parent="1">
          <mxGeometry x="372.5" y="555" width="200" height="30" as="geometry" />
        </mxCell>
        <mxCell id="t5YEzW8ncuUaLtk5umpn-27" value="4. Отображение страницы с авторизацией" style="text;html=1;align=center;verticalAlign=middle;whiteSpace=wrap;rounded=0;" vertex="1" parent="1">
          <mxGeometry x="130" y="555" width="185" height="30" as="geometry" />
        </mxCell>
      </root>
    </mxGraphModel>
  </diagram>
  <diagram id="B87bYZQZF-dMuTcoR58-" name="Корзина">
    <mxGraphModel dx="1050" dy="541" grid="1" gridSize="10" guides="1" tooltips="1" connect="1" arrows="1" fold="1" page="1" pageScale="1" pageWidth="827" pageHeight="1169" math="0" shadow="0">
      <root>
        <mxCell id="0" />
        <mxCell id="1" parent="0" />
        <mxCell id="Hmpg12V4sVJzEqSRaaKy-1" style="edgeStyle=orthogonalEdgeStyle;rounded=0;orthogonalLoop=1;jettySize=auto;html=1;endArrow=none;endFill=0;" edge="1" parent="1" source="Hmpg12V4sVJzEqSRaaKy-3" target="Hmpg12V4sVJzEqSRaaKy-6">
          <mxGeometry relative="1" as="geometry" />
        </mxCell>
        <mxCell id="Hmpg12V4sVJzEqSRaaKy-2" style="edgeStyle=orthogonalEdgeStyle;rounded=0;orthogonalLoop=1;jettySize=auto;html=1;" edge="1" parent="1">
          <mxGeometry relative="1" as="geometry">
            <mxPoint x="280" y="259" as="targetPoint" />
            <mxPoint x="120" y="259" as="sourcePoint" />
          </mxGeometry>
        </mxCell>
        <mxCell id="Hmpg12V4sVJzEqSRaaKy-3" value="Пользователь" style="shape=umlActor;verticalLabelPosition=bottom;verticalAlign=top;html=1;outlineConnect=0;" vertex="1" parent="1">
          <mxGeometry x="90" y="310" width="30" height="60" as="geometry" />
        </mxCell>
        <mxCell id="Hmpg12V4sVJzEqSRaaKy-4" value="Клиент" style="rounded=0;whiteSpace=wrap;html=1;" vertex="1" parent="1">
          <mxGeometry x="280" y="310" width="120" height="60" as="geometry" />
        </mxCell>
        <mxCell id="Hmpg12V4sVJzEqSRaaKy-5" value="Сервер" style="rounded=0;whiteSpace=wrap;html=1;" vertex="1" parent="1">
          <mxGeometry x="560" y="310" width="120" height="60" as="geometry" />
        </mxCell>
        <mxCell id="Hmpg12V4sVJzEqSRaaKy-6" value="База данных" style="rounded=0;whiteSpace=wrap;html=1;" vertex="1" parent="1">
          <mxGeometry x="840" y="310" width="120" height="60" as="geometry" />
        </mxCell>
        <mxCell id="Hmpg12V4sVJzEqSRaaKy-7" style="edgeStyle=orthogonalEdgeStyle;rounded=0;orthogonalLoop=1;jettySize=auto;html=1;" edge="1" parent="1">
          <mxGeometry relative="1" as="geometry">
            <mxPoint x="560" y="260" as="targetPoint" />
            <mxPoint x="400" y="260" as="sourcePoint" />
          </mxGeometry>
        </mxCell>
        <mxCell id="Hmpg12V4sVJzEqSRaaKy-8" style="edgeStyle=orthogonalEdgeStyle;rounded=0;orthogonalLoop=1;jettySize=auto;html=1;" edge="1" parent="1">
          <mxGeometry relative="1" as="geometry">
            <mxPoint x="840" y="260" as="targetPoint" />
            <mxPoint x="680" y="260" as="sourcePoint" />
          </mxGeometry>
        </mxCell>
        <mxCell id="Hmpg12V4sVJzEqSRaaKy-9" style="edgeStyle=orthogonalEdgeStyle;rounded=0;orthogonalLoop=1;jettySize=auto;html=1;endArrow=none;endFill=0;startArrow=classic;startFill=1;" edge="1" parent="1">
          <mxGeometry relative="1" as="geometry">
            <mxPoint x="280" y="420" as="targetPoint" />
            <mxPoint x="120" y="420" as="sourcePoint" />
          </mxGeometry>
        </mxCell>
        <mxCell id="Hmpg12V4sVJzEqSRaaKy-10" style="edgeStyle=orthogonalEdgeStyle;rounded=0;orthogonalLoop=1;jettySize=auto;html=1;endArrow=none;endFill=0;startArrow=classic;startFill=1;" edge="1" parent="1">
          <mxGeometry relative="1" as="geometry">
            <mxPoint x="560" y="420" as="targetPoint" />
            <mxPoint x="400" y="420" as="sourcePoint" />
          </mxGeometry>
        </mxCell>
        <mxCell id="Hmpg12V4sVJzEqSRaaKy-11" style="edgeStyle=orthogonalEdgeStyle;rounded=0;orthogonalLoop=1;jettySize=auto;html=1;endArrow=none;endFill=0;startArrow=classic;startFill=1;" edge="1" parent="1">
          <mxGeometry relative="1" as="geometry">
            <mxPoint x="840" y="420" as="targetPoint" />
            <mxPoint x="680" y="420" as="sourcePoint" />
          </mxGeometry>
        </mxCell>
        <mxCell id="Hmpg12V4sVJzEqSRaaKy-13" value="1. Нажать на кнопку &quot;В корзину&quot;" style="text;html=1;align=center;verticalAlign=middle;whiteSpace=wrap;rounded=0;" vertex="1" parent="1">
          <mxGeometry x="112.5" y="210" width="185" height="30" as="geometry" />
        </mxCell>
        <mxCell id="Hmpg12V4sVJzEqSRaaKy-14" value="2. Передача данных о товаре" style="text;html=1;align=center;verticalAlign=middle;whiteSpace=wrap;rounded=0;" vertex="1" parent="1">
          <mxGeometry x="380" y="200" width="185" height="30" as="geometry" />
        </mxCell>
        <mxCell id="Hmpg12V4sVJzEqSRaaKy-16" value="3. Проверка данных" style="text;html=1;align=center;verticalAlign=middle;whiteSpace=wrap;rounded=0;" vertex="1" parent="1">
          <mxGeometry x="670" y="200" width="185" height="30" as="geometry" />
        </mxCell>
        <mxCell id="Hmpg12V4sVJzEqSRaaKy-17" value="4. Успешная проверка данных" style="text;html=1;align=center;verticalAlign=middle;whiteSpace=wrap;rounded=0;" vertex="1" parent="1">
          <mxGeometry x="670" y="450" width="185" height="30" as="geometry" />
        </mxCell>
        <mxCell id="Hmpg12V4sVJzEqSRaaKy-18" value="5. Успешная передача данных" style="text;html=1;align=center;verticalAlign=middle;whiteSpace=wrap;rounded=0;" vertex="1" parent="1">
          <mxGeometry x="390" y="450" width="185" height="30" as="geometry" />
        </mxCell>
        <mxCell id="Hmpg12V4sVJzEqSRaaKy-20" value="6. Успешное сохранение товара в корзине" style="text;html=1;align=center;verticalAlign=middle;whiteSpace=wrap;rounded=0;" vertex="1" parent="1">
          <mxGeometry x="120" y="450" width="185" height="30" as="geometry" />
        </mxCell>
      </root>
    </mxGraphModel>
  </diagram>
</mxfile>
